<?xml version="1.0" encoding="utf-8"?>
<!-- Generator: Adobe Illustrator 27.1.1, SVG Export Plug-In . SVG Version: 6.00 Build 0)  -->
<svg  width="32" height="32" version="1.1" id="Layer_1" xmlns="http://www.w3.org/2000/svg" xmlns:xlink="http://www.w3.org/1999/xlink" x="0px" y="0px"
	 viewBox="0 0 32 32" style="enable-background:new 0 0 32 32;" xml:space="preserve">
<style type="text/css">
	.st0{fill:#FFFFFF;}
	.st1{fill:#F48032;}
	.st2{fill:#00B4A0;}
	.st3{fill:#FCC88E;}
	.st4{fill:#00B4CE;}
</style>
<path class="st0" d="M0.4,6.3C0.4,3,3,0.4,6.3,0.4h19.5c3.2,0,5.8,2.6,5.8,5.8v25.3H6.3c-3.2,0-5.8-2.6-5.8-5.8L0.4,6.3L0.4,6.3z"/>
<g>
	<path class="st1" d="M11.4,19H3.8c-1.5,0-2.7,1.4-2.7,3.2l0,0c0,1.8,1.2,3.2,2.7,3.2h7.6H16v-3.2L11.4,19z"/>
	<path class="st2" d="M16,15.8l-3.8-7.7c-0.8-1.5-2.4-2-3.6-1.1l0,0c-1.3,0.8-1.7,2.8-0.9,4.3l3.8,7.7l0.1,0.1l4.5,6.3v-9.6"/>
	<path class="st3" d="M15.9,15.9l3.8-7.7c0.8-1.5,2.4-2.1,3.7-1.1l0,0c1.3,0.8,1.7,2.8,0.9,4.3l-3.8,7.7l-0.1,0.1L16,25.3L15.9,15.9
		"/>
	<path class="st4" d="M28.2,19h-7.6L16,22.2l0,0v3.2h4.6L16,22.2l4.6,3.2h7.6c1.5,0,2.7-1.4,2.7-3.2C30.9,20.5,29.7,19,28.2,19z"/>
</g>
</svg>
